<?xml version="1.0" encoding="utf-8"?>
<!-- Generator: Adobe Illustrator 16.0.0, SVG Export Plug-In . SVG Version: 6.00 Build 0)  -->
<!DOCTYPE svg PUBLIC "-//W3C//DTD SVG 1.1//EN" "http://www.w3.org/Graphics/SVG/1.1/DTD/svg11.dtd">
<svg version="1.1" id="Layer_1" xmlns="http://www.w3.org/2000/svg" xmlns:xlink="http://www.w3.org/1999/xlink" x="0px" y="0px"
	 width="512px" height="512px" viewBox="0 0 512 512" enable-background="new 0 0 512 512" xml:space="preserve">
<path id="boy" d="M414.307,179.832c10.876,0,19.693-8.817,19.693-19.693V97.971v-0.008c0-0.657-0.035-1.305-0.098-1.944
	c-0.027-0.282-0.082-0.563-0.123-0.846c-0.05-0.354-0.092-0.71-0.162-1.058c-0.064-0.328-0.155-0.65-0.237-0.974
	c-0.076-0.298-0.141-0.6-0.229-0.895c-0.097-0.319-0.218-0.631-0.332-0.948c-0.104-0.29-0.199-0.585-0.318-0.868
	c-0.123-0.297-0.269-0.586-0.406-0.877c-0.138-0.29-0.267-0.585-0.417-0.868c-0.153-0.283-0.329-0.558-0.495-0.836
	c-0.164-0.271-0.318-0.55-0.494-0.814c-0.214-0.319-0.454-0.625-0.688-0.934c-0.153-0.204-0.295-0.416-0.457-0.611
	c-0.41-0.499-0.846-0.984-1.311-1.45c-0.467-0.466-0.953-0.902-1.453-1.313c-0.188-0.153-0.389-0.289-0.582-0.436
	c-0.318-0.243-0.636-0.489-0.967-0.71c-0.248-0.167-0.514-0.314-0.771-0.469c-0.293-0.176-0.582-0.361-0.881-0.52
	c-0.266-0.142-0.543-0.264-0.816-0.394c-0.308-0.147-0.616-0.302-0.932-0.433c-0.261-0.109-0.533-0.196-0.799-0.293
	c-0.339-0.122-0.676-0.252-1.019-0.355c-0.261-0.079-0.528-0.136-0.794-0.204c-0.355-0.092-0.713-0.192-1.074-0.262
	c-0.295-0.059-0.596-0.091-0.893-0.137c-0.338-0.051-0.674-0.113-1.012-0.146c-0.494-0.049-0.998-0.064-1.502-0.076
	c-0.144-0.002-0.285-0.022-0.43-0.022h-62.176c-10.876,0-19.693,8.817-19.693,19.693s8.817,19.692,19.693,19.692h14.635
	l-29.67,29.669c-22.901-17.235-51.361-27.464-82.165-27.464C179.428,119.863,118,181.291,118,256.795
	s61.428,136.932,136.934,136.932c75.504,0,136.931-61.428,136.931-136.932c0-30.525-10.044-58.747-26.995-81.542l29.746-29.747
	v14.633C394.615,171.016,403.432,179.832,414.307,179.832z M254.934,354.342c-53.789,0-97.549-43.758-97.549-97.547
	c0-53.789,43.76-97.548,97.549-97.548c53.787,0,97.545,43.759,97.545,97.548C352.479,310.584,308.721,354.342,254.934,354.342z"/>
</svg>
