<!DOCTYPE svg PUBLIC "-//W3C//DTD SVG 1.1//EN" "http://www.w3.org/Graphics/SVG/1.1/DTD/svg11.dtd">
<svg version="1.1" id="Layer_1" xmlns="http://www.w3.org/2000/svg" xmlns:xlink="http://www.w3.org/1999/xlink" x="0px" y="0px"
	 width="512px" height="512px" viewBox="0 0 512 512" enable-background="new 0 0 512 512" xml:space="preserve">
<path class="both" d="M414.307,178.073c10.876,0,19.693-8.817,19.693-19.692V96.212v-0.009c0-0.657-0.036-1.304-0.098-1.942
	c-0.028-0.288-0.085-0.574-0.126-0.86c-0.049-0.349-0.09-0.699-0.16-1.042c-0.064-0.332-0.156-0.661-0.24-0.99
	c-0.075-0.293-0.139-0.59-0.226-0.876c-0.098-0.325-0.223-0.644-0.339-0.967c-0.103-0.283-0.194-0.572-0.31-0.85
	c-0.127-0.303-0.276-0.6-0.417-0.899c-0.135-0.283-0.26-0.571-0.408-0.846c-0.158-0.294-0.338-0.578-0.512-0.865
	c-0.158-0.263-0.308-0.531-0.477-0.785c-0.223-0.334-0.471-0.653-0.717-0.975c-0.145-0.19-0.277-0.388-0.427-0.571
	c-0.411-0.5-0.847-0.986-1.313-1.453c-0.469-0.469-0.957-0.906-1.457-1.316c-0.168-0.137-0.348-0.257-0.518-0.388
	c-0.341-0.261-0.68-0.524-1.032-0.759c-0.232-0.155-0.477-0.29-0.716-0.436c-0.313-0.19-0.621-0.386-0.94-0.554
	c-0.247-0.133-0.505-0.246-0.757-0.366c-0.328-0.158-0.656-0.321-0.99-0.459c-0.24-0.1-0.492-0.181-0.739-0.27
	c-0.358-0.132-0.718-0.27-1.081-0.379c-0.234-0.071-0.477-0.121-0.715-0.184c-0.383-0.099-0.768-0.206-1.154-0.282
	c-0.253-0.049-0.511-0.078-0.768-0.116c-0.379-0.061-0.756-0.127-1.139-0.166c-0.381-0.036-0.772-0.042-1.161-0.058
	c-0.252-0.007-0.501-0.036-0.758-0.036h-62.175c-10.875,0-19.692,8.817-19.692,19.692c0,10.875,8.817,19.692,19.692,19.692h14.636
	l-29.669,29.667c-22.902-17.234-51.359-27.463-82.166-27.463C179.428,118.1,118,179.529,118,255.035
	c0,68.816,51.031,125.93,117.238,135.508l0.001,25.598h-24.27c-10.875,0-19.693,8.816-19.693,19.691s8.818,19.693,19.693,19.693
	h24.272v24.271c0,10.875,8.817,19.691,19.693,19.691c10.875,0,19.691-8.816,19.691-19.693v-24.27h24.27
	c10.875,0,19.693-8.818,19.693-19.693s-8.818-19.691-19.693-19.691h-24.27l-0.002-25.598c66.207-9.576,117.24-66.691,117.24-135.512
	c0-30.523-10.043-58.746-26.993-81.541l29.745-29.745v14.634C394.615,169.256,403.433,178.073,414.307,178.073z M254.933,352.582
	c-53.789,0-97.548-43.76-97.548-97.547c0-53.788,43.759-97.547,97.548-97.547c53.787,0,97.545,43.759,97.545,97.547
	C352.478,308.822,308.72,352.582,254.933,352.582z"/>
<path class="boy" d="M414.307,179.832c10.876,0,19.693-8.817,19.693-19.693V97.971v-0.008c0-0.657-0.035-1.305-0.098-1.944
	c-0.027-0.282-0.082-0.563-0.123-0.846c-0.05-0.354-0.092-0.71-0.162-1.058c-0.064-0.328-0.155-0.65-0.237-0.974
	c-0.076-0.298-0.141-0.6-0.229-0.895c-0.097-0.319-0.218-0.631-0.332-0.948c-0.104-0.29-0.199-0.585-0.318-0.868
	c-0.123-0.297-0.269-0.586-0.406-0.877c-0.138-0.29-0.267-0.585-0.417-0.868c-0.153-0.283-0.329-0.558-0.495-0.836
	c-0.164-0.271-0.318-0.55-0.494-0.814c-0.214-0.319-0.454-0.625-0.688-0.934c-0.153-0.204-0.295-0.416-0.457-0.611
	c-0.41-0.499-0.846-0.984-1.311-1.45c-0.467-0.466-0.953-0.902-1.453-1.313c-0.188-0.153-0.389-0.289-0.582-0.436
	c-0.318-0.243-0.636-0.489-0.967-0.71c-0.248-0.167-0.514-0.314-0.771-0.469c-0.293-0.176-0.582-0.361-0.881-0.52
	c-0.266-0.142-0.543-0.264-0.816-0.394c-0.308-0.147-0.616-0.302-0.932-0.433c-0.261-0.109-0.533-0.196-0.799-0.293
	c-0.339-0.122-0.676-0.252-1.019-0.355c-0.261-0.079-0.528-0.136-0.794-0.204c-0.355-0.092-0.713-0.192-1.074-0.262
	c-0.295-0.059-0.596-0.091-0.893-0.137c-0.338-0.051-0.674-0.113-1.012-0.146c-0.494-0.049-0.998-0.064-1.502-0.076
	c-0.144-0.002-0.285-0.022-0.43-0.022h-62.176c-10.876,0-19.693,8.817-19.693,19.693s8.817,19.692,19.693,19.692h14.635
	l-29.67,29.669c-22.901-17.235-51.361-27.464-82.165-27.464C179.428,119.863,118,181.291,118,256.795
	s61.428,136.932,136.934,136.932c75.504,0,136.931-61.428,136.931-136.932c0-30.525-10.044-58.747-26.995-81.542l29.746-29.747
	v14.633C394.615,171.016,403.432,179.832,414.307,179.832z M254.934,354.342c-53.789,0-97.549-43.758-97.549-97.547
	c0-53.789,43.76-97.548,97.549-97.548c53.787,0,97.545,43.759,97.545,97.548C352.479,310.584,308.721,354.342,254.934,354.342z"/>
<path class="girl" d="M390.5,256.299c0-74.717-60.785-135.502-135.5-135.502c-74.715,0-135.5,60.785-135.5,135.502
	c0,68.097,50.499,124.615,116.014,134.093v25.33h-24.017c-10.762,0-19.487,8.725-19.487,19.486s8.725,19.488,19.487,19.488h24.017
	l0,24.02c0,10.762,8.725,19.484,19.488,19.484s19.487-8.725,19.487-19.486l-0.002-24.018h24.018
	c10.762,0,19.486-8.727,19.486-19.488s-8.725-19.486-19.486-19.486h-24.018v-25.33C340.002,380.916,390.5,324.396,390.5,256.299z
	 M255.001,352.826c-53.225,0-96.528-43.303-96.528-96.527c0.001-53.227,43.303-96.528,96.528-96.528
	c53.222,0,96.527,43.303,96.527,96.528C351.528,309.523,308.225,352.826,255.001,352.826z"/>
</svg>
