<!DOCTYPE svg PUBLIC "-//W3C//DTD SVG 1.1//EN" "http://www.w3.org/Graphics/SVG/1.1/DTD/svg11.dtd">
<svg version="1.1" id="Layer_1" xmlns="http://www.w3.org/2000/svg" xmlns:xlink="http://www.w3.org/1999/xlink" x="0px" y="0px"
	 width="512px" height="512px" viewBox="0 0 512 512" enable-background="new 0 0 512 512" xml:space="preserve">
<path d="M390.5,256.299c0-74.717-60.785-135.502-135.5-135.502s-135.5,60.785-135.5,135.502
	c0,68.098,50.499,124.615,116.014,134.094v25.33h-24.017c-10.763,0-19.487,8.725-19.487,19.486c0,10.761,8.725,19.487,19.487,19.487
	h24.017v24.021c0,10.762,8.725,19.483,19.488,19.483c10.763,0,19.486-8.725,19.486-19.485l-0.002-24.019h24.019
	c10.762,0,19.485-8.727,19.485-19.487c0-10.762-8.725-19.486-19.485-19.486h-24.019v-25.33
	C340.002,380.916,390.5,324.396,390.5,256.299z M255.001,352.826c-53.226,0-96.528-43.303-96.528-96.527
	c0.001-53.227,43.303-96.527,96.528-96.527c53.222,0,96.526,43.303,96.526,96.527S308.225,352.826,255.001,352.826z"/>
</svg>
