<svg version="1.1" xmlns="http://www.w3.org/2000/svg" width="512px" height="512px" viewBox="0 0 512 512" enable-background="new 0 0 512 512">
<g>
	<path fill="#D8F2FE" d="M430.116,101.646c7.605,4.185,15.368,8.108,22.785,12.603
		c19.339,11.721,36.862,25.514,48.975,45.105c6.346,10.263,10.076,21.382,10.122,33.544c0.148,39.48-7.483,77.506-22.331,113.994
		c-11.265,27.681-26.312,53.236-45.074,76.593c-9.888,12.307-20.383,24.047-31.934,34.763
		c-19.244,17.851-40.237,33.378-63.036,46.489c-22.613,13.003-46.385,23.254-71.253,30.983
		c-18.246,5.671-36.806,10.016-55.774,12.543c-10.952,1.46-21.911,2.561-32.956,3.181c-5.917,0.331-11.82,0.446-17.73,0.548
		c-13.626,0.233-24.867-5.577-34.74-14.345c-12.895-11.451-22.41-25.485-30.289-40.708c-0.339-0.655-0.852-1.22-1.283-1.828
		c-2.872-2.686-4.053-6.376-5.612-9.789c-12.03-26.336-20.13-53.953-26.541-82.116c-6.406-28.144-10.509-56.655-13.429-85.335
		c-1.239-12.173-2.015-24.397-2.647-36.633c-0.868-16.78-1.657-33.554-1.348-50.354c0.337-18.412,4.187-36.098,11.693-52.943
		c7.497-16.823,17.684-31.796,31.189-44.368c23.057-21.462,50.203-34.05,81.646-37.021c18.8-1.776,37.569-0.287,56.353,0.648
		c18.934,0.943,37.767,2.825,56.519,5.476c30.574,4.321,60.689,10.738,90.159,20.105c14.352,4.561,28.358,9.967,42.162,15.948
		C427.39,99.444,428.907,100.3,430.116,101.646z"/>
	<path fill="#FDE1EF" d="M430.116,101.646c-9.079-3.375-17.826-7.551-26.91-10.944
		c-14.637-5.467-29.538-10.008-44.618-14.017c-17.716-4.71-35.666-8.369-53.748-11.254c-12.863-2.053-25.798-3.676-38.798-4.849
		c-15.522-1.4-31.045-2.394-46.613-3.141c-10.853-0.521-21.708-0.849-32.504-0.392c-16.802,0.711-33.063,4.51-48.48,11.475
		c-16.608,7.504-31.415,17.583-43.902,30.926c-17.619,18.823-29.054,40.828-34.551,66.079c-3.72,17.088-3.156,34.343-2.739,51.557
		c0.25,10.292,0.5,20.634,1.404,30.903c1.144,12.993,1.979,26.008,3.505,38.979c1.438,12.206,2.943,24.397,4.816,36.537
		c3.466,22.475,8.236,44.688,14.345,66.593c6.102,21.879,13.596,43.254,23.896,63.563c0.22,0.436,0.257,0.964,0.38,1.449
		c-12.109-0.864-22.569-5.761-31.851-13.311c-13.732-11.167-23.414-25.507-31.686-40.936C28.14,374.9,19.45,347.104,13.079,318.483
		c-3.218-14.457-5.836-29.008-7.642-43.722c-1.606-13.086-2.802-26.192-3.857-39.334c-1.831-22.815-1.862-45.662-1.141-68.458
		c0.54-17.084,6.587-32.928,15.681-47.519c12.674-20.335,29.592-36.533,49.001-50.221c32.618-23.004,68.933-37.966,107.105-48.877
		c21.525-6.154,43.384-10.762,65.488-14.055c12.263-1.827,24.63-3.053,37.008-4.164c24.026-2.153,48.071-2.159,72.137-2.126
		c12.717,0.018,23.481,5.1,32.99,13.085c17.634,14.811,28.387,34.38,37.722,54.945C422.531,78.965,426.621,90.187,430.116,101.646z"
		/>
	<path fill="#22211F" d="M206.108,378.587c-4.938,0-10.006,0.256-15.201,0.779c-5.201,0.518-10.006,1.035-14.422,1.56
		c-4.422,0.518-9.354,1.297-14.812,2.339l2.339-17.931c12.211-2.338,20.33-5.779,24.361-10.329
		c4.025-4.543,6.041-12.278,6.041-23.191l0.391-163.709c0-8.313-0.914-13.898-2.729-16.761c-1.821-2.856-5.719-4.288-11.693-4.288
		c-2.34,0-6.761,0.262-13.253,0.78l-0.78-1.56l2.729-17.15c5.975,0.262,11.305,0.457,15.981,0.585
		c4.678,0.134,9.483,0.262,14.423,0.39c4.933,0.134,9.221,0.195,12.862,0.195c2.856,0,6.236-0.061,10.134-0.195
		c3.898-0.128,7.924-0.256,12.084-0.39c4.153-0.128,8.051-0.256,11.693-0.39c3.636-0.128,7.662-0.323,12.083-0.585
		c24.685,0,43.655,5.067,56.908,15.202s19.879,24.818,19.879,44.045c0,12.735-3.897,24.361-11.693,34.885
		c-7.796,10.524-18.972,18.905-33.521,25.141c12.729,2.601,23.582,6.761,32.547,12.473c8.965,5.72,15.847,12.54,20.658,20.464
		c4.806,7.93,7.211,16.7,7.211,26.311c0,13.515-4.227,25.987-12.668,37.419c-8.447,11.438-19.623,20.598-33.521,27.479
		c-13.904,6.883-29.039,10.329-45.41,10.329c-4.16,0-8.381-0.194-12.668-0.584s-8.514-0.847-12.668-1.364
		c-4.16-0.524-8.514-0.975-13.058-1.364C215.785,378.782,211.041,378.587,206.108,378.587z M223.649,262.431l-1.56,72.89
		c0,9.878,3.374,16.895,10.135,21.048c6.754,4.16,18.186,6.236,34.301,6.236c15.591,0,27.869-4.349,36.834-13.058
		c8.965-8.703,13.448-20.463,13.448-35.275c0-28.844-17.541-46.384-52.621-52.62L223.649,262.431z M224.428,241.773
		c7.533,0.523,13.898,1.041,19.1,1.559c5.195,0.524,10,0.914,14.422,1.17c4.416,0.262,7.406,0.39,8.965,0.39
		c7.271-2.856,13.381-6.042,18.319-9.55c4.934-3.508,9.222-8.575,12.863-15.202c3.636-6.626,5.457-15.134,5.457-25.531
		c0-16.888-5.591-29.294-16.761-37.224c-11.176-7.923-28.454-11.888-51.841-11.888c-2.601,0-4.354,0.584-5.263,1.754
		c-0.913,1.169-1.498,3.575-1.754,7.211c-0.523,8.319-0.975,17.218-1.363,26.7c-0.391,9.489-0.78,19.233-1.17,29.234
		C225.013,220.402,224.684,230.859,224.428,241.773z"/>
</g>
</svg>
