<?xml version="1.0" encoding="utf-8"?>
<svg version="1.1" id="Ebene_1" xmlns="http://www.w3.org/2000/svg" width="512px" height="512px" viewBox="0 0 512 512" >
<path fill="#D9EFFC" d="M289.334,0.071c0.297,3.157,2.007,5.826,3.078,8.708
	c3.944,10.604,6.49,21.485,7.635,32.764c2.049,20.173-0.571,39.625-7.688,58.606c-5.707,15.223-13.988,28.746-24.882,40.784
	c-9.833,10.864-21.059,20.17-32.218,29.568c-5.745,4.839-11.301,9.933-17.302,14.431c-6.521,4.888-12.894,9.972-19.553,14.692
	c-7.028,4.982-13.976,10.077-21.133,14.881c-8.774,5.891-17.661,11.587-26.771,16.951c-13.223,7.786-26.705,15.066-40.583,21.619
	c-22.57,10.658-45.881,19.182-70.405,24.049c-8.534,1.693-17.171,2.779-25.941,3.037c-4.524,0.133-9.002-0.553-13.501-0.143
	C0.066,187.86,0.072,95.703,0,3.545C-0.002,0.785,0.758-0.002,3.534,0C98.801,0.072,194.067,0.066,289.334,0.071z"/>
<path fill="#FBE2EF" d="M218.012,511.92c-0.002-4.979,0.005-9.955-0.006-14.934
	c-0.029-11.592,2.428-22.805,5.52-33.867c3.843-13.746,9.016-27.025,14.883-40.039c4.776-10.596,10.297-20.797,15.886-30.973
	c8.991-16.373,19.282-31.932,30.03-47.162c9.026-12.792,18.704-25.116,28.744-37.16c8.71-10.448,17.521-20.799,26.865-30.672
	c14.483-15.305,32.697-23.845,52.99-28.364c14.936-3.326,30.15-3.395,45.266-2.574c14.746,0.802,29.273,3.682,43.621,7.374
	c10.174,2.618,20.068,6.097,30.111,9.109c0.006,81.937,0.002,163.875,0.078,245.811c0.002,2.779-0.787,3.533-3.543,3.531
	C411.641,511.926,314.826,511.928,218.012,511.92z"/>
</svg>
